<?xml version="1.0" encoding="UTF-8"?>
<svg id="Capa_1" data-name="Capa 1" xmlns="http://www.w3.org/2000/svg" viewBox="0 0 604.8 99.49">
  <defs>
    <style>
      .cls-1 {
        fill: #f9c000;
        stroke-width: 0px;
      }
    </style>
  </defs>
  <polygon class="cls-1" points="67.47 33.33 103.69 36.95 76.52 61.18 84.26 96.75 52.83 78.39 21.39 96.75 29.14 61.18 1.97 36.95 38.19 33.33 52.83 0 67.47 33.33"/>
  <polygon class="cls-1" points="192.23 33.33 228.45 36.95 201.28 61.18 209.03 96.75 177.59 78.39 146.16 96.75 153.9 61.18 126.73 36.95 162.95 33.33 177.59 0 192.23 33.33"/>
  <polygon class="cls-1" points="316.99 33.33 353.22 36.95 326.04 61.18 333.79 96.75 302.35 78.39 270.92 96.75 278.66 61.18 251.49 36.95 287.71 33.33 302.35 0 316.99 33.33"/>
  <polygon class="cls-1" points="441.76 33.33 477.98 36.95 450.81 61.18 458.55 96.75 427.11 78.39 395.68 96.75 403.42 61.18 376.25 36.95 412.47 33.33 427.11 0 441.76 33.33"/>
  <polygon class="cls-1" points="566.52 33.33 602.74 36.95 575.57 61.18 583.31 96.75 551.88 78.39 520.44 96.75 528.18 61.18 501.01 36.95 537.23 33.33 551.88 0 566.52 33.33"/>
</svg>