<?xml version="1.0" encoding="UTF-8"?>
<svg id="Capa_1" data-name="Capa 1" xmlns="http://www.w3.org/2000/svg" version="1.1" viewBox="0 0 594.76 142.62">
  <defs>
    <style>
      .cls-1 {
        fill: #f9c000;
      }

      .cls-1, .cls-2, .cls-3, .cls-4 {
        stroke-width: 0px;
      }

      .cls-2, .cls-3 {
        fill-rule: evenodd;
      }

      .cls-2, .cls-4, .cls-5 {
        fill: #fff;
      }

      .cls-3 {
        fill: #009cde;
      }

      .cls-5 {
        font-family: Rubik-Bold, Rubik;
        font-size: 23.79px;
        font-weight: 700;
        letter-spacing: .1em;
      }
    </style>
  </defs>
  <g>
    <g>
      <path class="cls-2" d="M137.91,57.69v-9.56h3.87c1.31.02,2.32.45,3.03,1.29s1.07,1.99,1.08,3.45c0,1.48-.37,2.65-1.09,3.5-.72.86-1.75,1.29-3.1,1.31h-3.79ZM133.18,71.78h4.73v-9.67h4.66c2.44-.04,4.4-.9,5.88-2.57,1.48-1.67,2.24-3.89,2.28-6.66-.04-2.76-.8-4.96-2.28-6.6-1.48-1.64-3.44-2.47-5.88-2.51h-11.73v4.38h2.35v23.64Z"/>
      <path class="cls-2" d="M157.23,61.79c.04,3.15.96,5.66,2.76,7.55,1.8,1.89,4.25,2.86,7.34,2.9,3.06-.05,5.48-1.02,7.28-2.9,1.8-1.89,2.71-4.4,2.76-7.55v-12.79c0-.28.07-.49.21-.64.14-.15.33-.23.59-.23h1.55v-4.38h-4.62c-.86,0-1.48.21-1.88.65-.39.43-.58,1.11-.58,2.04v15.16c-.02,1.87-.51,3.3-1.47,4.31-.96,1.01-2.25,1.52-3.88,1.53-1.63-.01-2.92-.52-3.88-1.52-.96-1-1.45-2.43-1.47-4.28v-15.2c0-.92-.19-1.6-.58-2.04-.39-.43-1.02-.65-1.88-.65h-4.62v4.38h1.55c.25,0,.45.08.59.23.14.15.21.36.21.64v12.79Z"/>
      <path class="cls-2" d="M186.77,69.09c0,.94.19,1.62.58,2.05.39.43,1.02.64,1.88.63h11.63c.84,0,1.46-.2,1.86-.63.4-.43.59-1.11.59-2.05v-4.26h-4.29v1.7c0,.28-.07.49-.21.64-.14.15-.33.23-.59.23h-5.92c-.25,0-.45-.08-.59-.23-.14-.15-.21-.36-.21-.64v-6.67h8.31v-4.38h-8.31v-7.35h5.78c.25,0,.45.08.59.23.14.15.21.36.21.64v1.7h4.29v-4.26c0-.92-.19-1.6-.59-2.04-.4-.43-1.02-.65-1.86-.65h-15.49v4.38h2.35v20.96Z"/>
      <path class="cls-2" d="M214.91,56.9v-8.77h3.83c1.17,0,2.08.39,2.73,1.14.65.75.98,1.82.99,3.21,0,1.41-.34,2.5-1,3.26-.66.76-1.59,1.15-2.79,1.16h-3.76ZM210.18,71.78h4.73v-10.46h2.38c.65-.01,1.15.06,1.51.24.35.17.66.53.91,1.07l3.29,7.07c.39.86.85,1.43,1.38,1.71.53.28,1.26.4,2.19.38h2.49v-4.38h-.47c-.4.01-.75-.03-1.05-.14-.3-.11-.55-.36-.75-.77l-2.49-5.41c-.26-.51-.53-.87-.81-1.09-.28-.22-.43-.33-.46-.33v-.08c.39-.07.92-.37,1.58-.9.66-.52,1.27-1.32,1.81-2.38.54-1.06.83-2.43.86-4.11-.04-2.67-.78-4.73-2.23-6.21-1.45-1.47-3.36-2.22-5.75-2.24h-11.48v4.38h2.35v23.64Z"/>
      <path class="cls-2" d="M240.67,71.78h4.73v-23.64h3.94c.25,0,.45.08.59.23.14.15.21.36.21.64v1.7h4.15v-4.42c.01-.92-.16-1.57-.5-1.96s-.95-.58-1.8-.57h-17.87c-.85-.01-1.45.18-1.8.57-.35.39-.52,1.04-.51,1.96v4.42h4.15v-1.7c0-.28.07-.49.21-.64.14-.15.33-.23.59-.23h3.94v23.64Z"/>
      <path class="cls-2" d="M263.68,60.34l2.2-7.02c.16-.54.32-1.13.47-1.77.15-.64.28-1.2.38-1.67.1-.47.15-.72.16-.74h.07s.06.27.16.74c.1.47.23,1.03.38,1.67s.31,1.23.47,1.77l2.2,7.03h-6.5ZM255.16,71.78h2.85c.88.02,1.53-.14,1.96-.48.43-.33.77-.94,1.04-1.81l1.59-4.9h8.66l1.59,4.9c.27.87.62,1.47,1.06,1.81.44.33,1.1.49,1.98.48h2.82v-4.38h-.58c-.3,0-.54-.05-.71-.17-.17-.12-.31-.35-.41-.7l-7.58-22.77h-4.95l-7.62,22.77c-.1.35-.24.58-.41.7-.17.12-.41.18-.71.17h-.58v4.38Z"/>
      <path class="cls-2" d="M282.8,67.91c0,.05.34.43,1.02,1.12.68.7,1.67,1.39,2.98,2.09,1.31.7,2.91,1.07,4.8,1.12,2.71-.06,4.8-.88,6.28-2.45,1.48-1.57,2.22-3.5,2.24-5.79-.03-1.82-.45-3.29-1.25-4.43-.8-1.13-1.8-2.05-2.99-2.76-1.19-.7-2.38-1.32-3.57-1.84-1.19-.53-2.19-1.09-2.99-1.69-.8-.6-1.22-1.37-1.25-2.31.02-.9.38-1.62,1.07-2.17.69-.54,1.59-.82,2.69-.83.88,0,1.66.21,2.34.6.67.39,1.03.91,1.06,1.57v1.26h4.26v-2.61c-.04-1.32-.47-2.39-1.31-3.2-.83-.81-1.83-1.4-3-1.77-1.17-.37-2.27-.55-3.31-.55-2.52.05-4.57.79-6.13,2.24-1.57,1.45-2.37,3.33-2.42,5.65.03,1.73.45,3.14,1.25,4.25.8,1.11,1.8,2.03,2.99,2.75,1.19.72,2.38,1.37,3.57,1.94,1.19.57,2.19,1.17,2.99,1.8.8.64,1.22,1.42,1.25,2.36-.03,1.09-.4,1.91-1.11,2.47-.71.56-1.57.84-2.57.84-1.2-.04-2.27-.33-3.2-.86-.93-.53-1.66-1.06-2.2-1.6-.53-.53-.8-.82-.82-.86l-2.67,3.63Z"/>
      <path class="cls-2" d="M320.94,71.78h4.73v-11.33h8.2v-4.38h-8.2v-7.94h4.95c.25,0,.45.08.59.23.14.15.21.36.21.64v1.7h4.26v-4.26c0-.92-.19-1.6-.58-2.04-.39-.43-1.02-.65-1.88-.65h-14.62v4.38h2.35v23.64Z"/>
      <path class="cls-2" d="M347.22,56.9v-8.77h3.83c1.17,0,2.08.39,2.73,1.14.65.75.98,1.82.99,3.21,0,1.41-.34,2.5-1,3.26-.66.76-1.59,1.15-2.79,1.16h-3.76ZM342.49,71.78h4.73v-10.46h2.38c.65-.01,1.15.06,1.51.24.35.17.66.53.91,1.07l3.29,7.07c.39.86.85,1.43,1.38,1.71.53.28,1.26.4,2.19.38h2.49v-4.38h-.47c-.4.01-.75-.03-1.05-.14-.3-.11-.55-.36-.75-.77l-2.49-5.41c-.26-.51-.53-.87-.81-1.09-.28-.22-.43-.33-.46-.33v-.08c.39-.07.92-.37,1.58-.9.66-.52,1.27-1.32,1.81-2.38.54-1.06.83-2.43.86-4.11-.04-2.67-.78-4.73-2.23-6.21-1.45-1.47-3.36-2.22-5.75-2.24h-11.48v4.38h2.35v23.64Z"/>
      <polygon class="cls-2" points="365.65 71.78 375.25 71.78 375.25 67.4 372.68 67.4 372.68 48.14 375.25 48.14 375.25 43.76 365.65 43.76 365.65 48.14 368.21 48.14 368.21 67.4 365.65 67.4 365.65 71.78"/>
      <path class="cls-2" d="M380.27,57.61c.03,3.03.61,5.63,1.74,7.81,1.13,2.18,2.63,3.86,4.5,5.04,1.87,1.18,3.95,1.77,6.21,1.79,1.61-.04,2.97-.3,4.09-.78,1.12-.48,1.98-.96,2.57-1.44s.89-.74.89-.78h.07s0,.13-.02.37c-.01.23-.02.51-.02.81v1.34h4.04v-11.96c0-.92-.19-1.59-.58-2.02-.39-.42-1.02-.63-1.88-.63h-4.15v4.38h1.55c.25,0,.45.07.59.21.14.14.21.36.21.66v2.09s-.26.29-.78.76c-.51.47-1.26.94-2.22,1.41s-2.13.72-3.5.76c-1.55,0-2.95-.41-4.22-1.2-1.27-.79-2.28-1.92-3.03-3.39-.76-1.47-1.14-3.23-1.16-5.28.02-1.91.4-3.57,1.15-4.99.75-1.42,1.74-2.53,2.98-3.32,1.24-.79,2.61-1.19,4.11-1.2,1.31.03,2.46.25,3.44.65.98.4,1.75.8,2.3,1.2.55.4.83.61.84.65l2.67-3.71s-.34-.35-1.03-.92c-.69-.57-1.72-1.14-3.11-1.71-1.38-.57-3.12-.88-5.22-.92-2.5.03-4.73.67-6.69,1.92-1.95,1.25-3.49,2.96-4.62,5.11-1.13,2.15-1.7,4.58-1.73,7.29Z"/>
      <path class="cls-2" d="M414.47,57.57c.06-2.74.87-4.99,2.44-6.75,1.57-1.76,3.53-2.66,5.9-2.72,2.37.06,4.34.97,5.9,2.72,1.57,1.76,2.38,4.01,2.44,6.75-.06,2.86-.87,5.21-2.44,7.04-1.57,1.83-3.53,2.77-5.9,2.83-2.37-.06-4.34-1-5.9-2.83-1.57-1.83-2.38-4.17-2.44-7.04ZM409.56,57.57c.02,2.78.61,5.27,1.76,7.47,1.15,2.2,2.72,3.95,4.7,5.23,1.99,1.29,4.25,1.94,6.79,1.97,2.54-.03,4.8-.69,6.79-1.97,1.99-1.29,3.55-3.03,4.7-5.23,1.15-2.2,1.73-4.69,1.76-7.47-.02-2.7-.61-5.12-1.76-7.26-1.15-2.14-2.72-3.84-4.7-5.1-1.99-1.25-4.25-1.89-6.79-1.92-2.54.03-4.8.67-6.79,1.92s-3.55,2.95-4.7,5.1c-1.15,2.14-1.73,4.57-1.76,7.26Z"/>
      <path class="cls-2" d="M447.97,56.9v-8.77h3.83c1.17,0,2.08.39,2.73,1.14.65.75.98,1.82.99,3.21,0,1.41-.34,2.5-1,3.26-.66.76-1.59,1.15-2.79,1.16h-3.76ZM443.24,71.78h4.73v-10.46h2.38c.65-.01,1.15.06,1.51.24.35.17.66.53.91,1.07l3.29,7.07c.39.86.85,1.43,1.38,1.71.53.28,1.26.4,2.19.38h2.49v-4.38h-.47c-.4.01-.75-.03-1.05-.14s-.55-.36-.75-.77l-2.49-5.41c-.26-.51-.53-.87-.81-1.09-.28-.22-.43-.33-.46-.33v-.08c.39-.07.92-.37,1.58-.9.66-.52,1.27-1.32,1.81-2.38s.83-2.43.86-4.11c-.04-2.67-.78-4.73-2.23-6.21-1.45-1.47-3.36-2.22-5.75-2.24h-11.48v4.38h2.35v23.64Z"/>
      <path class="cls-2" d="M469.43,41.9h3.36l3.79-5.36h-4.4l-2.74,5.36ZM466.4,71.78h9.6v-4.38h-2.56v-19.26h2.56v-4.38h-9.6v4.38h2.56v19.26h-2.56v4.38Z"/>
      <path class="cls-2" d="M483.47,71.78h4.73v-11.33h8.2v-4.38h-8.2v-7.94h4.95c.25,0,.45.08.59.23.14.15.21.36.21.64v1.7h4.26v-4.26c0-.92-.19-1.6-.58-2.04-.39-.43-1.02-.65-1.88-.65h-14.62v4.38h2.35v23.64Z"/>
      <polygon class="cls-2" points="502.82 71.78 512.42 71.78 512.42 67.4 509.86 67.4 509.86 48.14 512.42 48.14 512.42 43.76 502.82 43.76 502.82 48.14 505.39 48.14 505.39 67.4 502.82 67.4 502.82 71.78"/>
      <path class="cls-2" d="M517.41,57.53c.02,2.79.58,5.29,1.67,7.5,1.1,2.21,2.63,3.96,4.6,5.24,1.97,1.29,4.27,1.95,6.9,1.97,2.21-.06,4.08-.48,5.61-1.25,1.53-.77,2.7-1.54,3.5-2.32.8-.77,1.2-1.19,1.21-1.25l-2.49-3.71s-.32.37-.94.96c-.62.6-1.51,1.19-2.66,1.79-1.16.6-2.54.92-4.16.96-1.57-.02-2.98-.47-4.23-1.35-1.25-.88-2.25-2.06-2.98-3.55-.74-1.49-1.11-3.16-1.13-5.01.06-2.95.85-5.25,2.38-6.91,1.53-1.66,3.47-2.5,5.82-2.53.77,0,1.56.11,2.37.32.81.22,1.5.54,2.06.99.56.44.85,1.01.88,1.69v1.58h4.29v-3.12c-.06-1.58-.65-2.83-1.79-3.75-1.13-.92-2.45-1.57-3.95-1.96-1.5-.39-2.82-.58-3.98-.57-2.5.03-4.73.66-6.68,1.89-1.95,1.24-3.48,2.92-4.6,5.06-1.12,2.14-1.69,4.57-1.72,7.29Z"/>
      <path class="cls-2" d="M553.39,60.34l2.2-7.02c.16-.54.32-1.13.47-1.77.15-.64.28-1.2.38-1.67.1-.47.15-.72.16-.74h.07s.06.27.16.74c.1.47.23,1.03.38,1.67.15.64.31,1.23.47,1.77l2.2,7.03h-6.5ZM544.87,71.78h2.85c.88.02,1.53-.14,1.96-.48s.77-.94,1.04-1.81l1.59-4.9h8.66l1.59,4.9c.27.87.62,1.47,1.06,1.81.44.33,1.1.49,1.98.48h2.82v-4.38h-.58c-.3,0-.54-.05-.71-.17-.17-.12-.31-.35-.41-.7l-7.58-22.77h-4.95l-7.62,22.77c-.1.35-.24.58-.41.7-.17.12-.41.18-.71.17h-.58v4.38Z"/>
      <path class="cls-2" d="M572.51,67.91c0,.05.34.43,1.02,1.12.68.7,1.67,1.39,2.98,2.09,1.31.7,2.91,1.07,4.8,1.12,2.71-.06,4.8-.88,6.28-2.45,1.48-1.57,2.22-3.5,2.24-5.79-.03-1.82-.45-3.29-1.25-4.43-.8-1.13-1.8-2.05-2.99-2.76-1.19-.7-2.38-1.32-3.57-1.84-1.19-.53-2.19-1.09-2.99-1.69-.8-.6-1.22-1.37-1.25-2.31.02-.9.38-1.62,1.07-2.17.69-.54,1.59-.82,2.69-.83.88,0,1.66.21,2.34.6.67.39,1.03.91,1.06,1.57v1.26h4.26v-2.61c-.04-1.32-.47-2.39-1.31-3.2s-1.83-1.4-3-1.77c-1.17-.37-2.27-.55-3.31-.55-2.52.05-4.57.79-6.13,2.24-1.57,1.45-2.38,3.33-2.42,5.65.03,1.73.45,3.14,1.25,4.25.8,1.11,1.8,2.03,2.99,2.75,1.19.72,2.38,1.37,3.57,1.94,1.19.57,2.19,1.17,2.99,1.8.8.64,1.22,1.42,1.25,2.36-.03,1.09-.4,1.91-1.11,2.47s-1.57.84-2.57.84c-1.2-.04-2.27-.33-3.2-.86-.93-.53-1.66-1.06-2.2-1.6-.53-.53-.8-.82-.82-.86l-2.67,3.63Z"/>
    </g>
    <text class="cls-5" transform="translate(159.26 105.25) scale(.93 1)"><tspan x="0" y="0">-INDUSTRIAL QUALITY DOORS-</tspan></text>
  </g>
  <g>
    <g>
      <path class="cls-4" d="M18.19,49.31c-.68.39-1.08.77-1.08,1.64.06,10.38.08,20.76.11,31.14.03,4.21.14,8.48.32,12.64.03.67.94,1.04,1.23,1.21,12.18,7.06,23.85,13.77,36.03,20.85,1.09.63,1.86.43,2.85-.14,11.95-6.94,23.92-13.85,35.92-20.71,1.26-.72,1.64-1.53,1.63-2.93-.06-12.87-.02-25.73-.05-38.6,0-1.42.17-2.87-.26-4.27-3.63-2.5-7.57-4.48-11.36-6.71-.04-.05-.06-.13-.11-.16-8.85-5.14-17.7-10.27-26.53-15.44-.72-.42-1.19-.16-1.77.17-12.3,7.11-24.61,14.22-36.93,21.31Z"/>
      <path class="cls-1" d="M110.87,42.69c0-1.32-.36-2.06-1.57-2.75-17.26-9.9-34.49-19.85-51.69-29.84-1.12-.65-1.89-.62-3,.02C37.41,20.11,20.18,30.06,2.93,39.96c-1.1.63-1.53,1.29-1.52,2.59.06,10,.03,19.99.03,29.99s.02,19.86-.03,29.79c0,1.27.35,1.98,1.47,2.62,17.25,9.9,34.49,19.84,51.7,29.82,1.16.68,2.01.65,3.17-.02,17.15-9.95,34.33-19.86,51.52-29.74,1.15-.66,1.63-1.35,1.62-2.73-.05-19.86-.05-39.72,0-59.58ZM93.57,95.93c-12,6.86-23.96,13.78-35.92,20.71-.99.57-1.76.77-2.85.14-12.17-7.08-23.85-13.79-36.03-20.85-.29-.17-1.2-.54-1.23-1.21-.19-4.16-.3-8.42-.32-12.64-.03-10.38-.05-20.76-.11-31.14,0-.87.4-1.25,1.08-1.64,12.32-7.09,24.62-14.2,36.93-21.31.58-.34,1.05-.59,1.77-.17,8.83,5.17,17.68,10.3,26.53,15.44.05.03.08.1.11.16,3.79,2.23,7.72,4.21,11.36,6.71.43,1.4.26,2.85.26,4.27.02,12.87,0,25.73.05,38.6,0,1.41-.37,2.22-1.63,2.93Z"/>
    </g>
    <path class="cls-3" d="M29.36,84.21c0,.06.44.45,1.3,1.19.86.74,2.12,1.48,3.77,2.22s3.66,1.14,6.03,1.19c2.48-.03,4.59-.54,6.32-1.54,1.73-1,3.05-2.29,3.96-3.89.91-1.6,1.37-3.32,1.37-5.16-.07-2.77-.93-4.97-2.56-6.58-1.63-1.62-3.59-2.6-5.87-2.96l7.51-9.4v-3.73h-17.78c-1.09,0-1.84.25-2.26.75-.42.51-.62,1.3-.6,2.38v4.97h5.43v-1.98c0-.32.09-.57.27-.75s.42-.26.75-.27h4.1c.95,0,1.67-.03,2.16-.07.49-.04.74-.06.74-.07v.09s-.24.21-.67.62-.92,1.04-1.5,1.87l-5.53,7.42,1.2,3h2.31c1.79.02,3.26.45,4.4,1.31s1.74,2.02,1.77,3.49c-.03,1.45-.56,2.62-1.58,3.51-1.02.89-2.36,1.35-4,1.37-1.62-.04-3.03-.35-4.23-.91s-2.13-1.12-2.78-1.69c-.66-.56-.99-.86-1-.91l-3.04,4.51Z"/>
    <path class="cls-3" d="M63.87,74.91l2.81-8.2c.2-.63.4-1.32.6-2.07s.36-1.4.49-1.95c.13-.55.2-.84.2-.87h.09s.07.32.2.87c.13.55.29,1.2.49,1.95.2.75.4,1.44.6,2.07l2.81,8.2h-8.29ZM53,88.26h3.64c1.12.02,1.95-.17,2.5-.56.55-.39.99-1.09,1.32-2.11l2.03-5.72h11.06l2.03,5.72c.34,1.02.79,1.72,1.35,2.11.56.39,1.4.58,2.52.56h3.59v-5.11h-.74c-.39,0-.69-.06-.9-.2-.22-.14-.39-.41-.52-.82l-9.67-26.58h-6.31l-9.72,26.58c-.13.41-.31.68-.52.82-.22.14-.52.21-.9.2h-.74v5.11Z"/>
  </g>
</svg>