<?xml version="1.0" encoding="UTF-8"?>
<svg xmlns="http://www.w3.org/2000/svg" version="1.1" viewBox="0 0 23.5 23.5">
  <defs>
    <style>
      .cls-1 {
        fill: #1d1d1b;
        fill-rule: evenodd;
      }

      .cls-2 {
        fill: #f9c001;
      }
    </style>
  </defs>
  <!-- Generator: Adobe Illustrator 28.6.0, SVG Export Plug-In . SVG Version: 1.2.0 Build 709)  -->
  <g>
    <g id="Capa_1">
      <path class="cls-2" d="M23.2,11.8c0,6.3-5.2,11.5-11.5,11.5S.2,18.1.2,11.8,5.4.2,11.8.2s11.5,5.2,11.5,11.5Z"/>
      <path class="cls-1" d="M10.1,11.8v6.2c0,0,0,.2.2.2h2.3c0,0,.2,0,.2-.2v-6.3h1.7c0,0,.1,0,.2-.1l.2-1.9c0,0,0-.2-.2-.2h-1.8v-1.4c0-.3.3-.6.6-.6h1.3c0,0,.2,0,.2-.2v-1.9c0,0,0-.2-.2-.2h-2.2c-1.3,0-2.3,1-2.3,2.3v1.8h-1.1c0,0-.2,0-.2.2v1.9c0,0,0,.2.2.2h1.1c0,.1,0,.1,0,.1Z"/>
    </g>
  </g>
</svg>