<?xml version="1.0" encoding="UTF-8"?>
<svg xmlns="http://www.w3.org/2000/svg" version="1.1" viewBox="0 0 23.5 23.5">
  <defs>
    <style>
      .cls-1 {
        fill: #f9c001;
      }
    </style>
  </defs>
  <!-- Generator: Adobe Illustrator 28.6.0, SVG Export Plug-In . SVG Version: 1.2.0 Build 709)  -->
  <g>
    <g id="Capa_1">
      <g id="Capa_1-2" data-name="Capa_1">
        <path class="cls-1" d="M23.2,11.8c0,6.3-5.2,11.5-11.5,11.5S.2,18.1.2,11.8,5.4.2,11.8.2s11.5,5.2,11.5,11.5Z"/>
        <path d="M15.6,8.5c0,.4-.3.7-.7.7s-.7-.3-.7-.7.3-.7.7-.7.7.3.7.7ZM14.8,11.7c0,1.6-1.3,2.9-2.9,2.9s-2.9-1.3-2.9-2.9,1.3-2.9,2.9-2.9,2.9,1.3,2.9,2.9ZM13.7,11.7c0-1-.8-1.9-1.9-1.9s-1.9.8-1.9,1.9.8,1.9,1.9,1.9,1.9-.8,1.9-1.9ZM17.8,9.3c0-2-1.6-3.6-3.6-3.6h-4.9c-2,0-3.6,1.6-3.6,3.6v4.9c0,2,1.6,3.6,3.6,3.6h4.9c2,0,3.6-1.6,3.6-3.6v-4.9ZM16.6,14.1c0,1.4-1.1,2.4-2.4,2.4h-4.8c-1.4,0-2.4-1.1-2.4-2.4v-4.8c0-1.4,1.1-2.4,2.4-2.4h4.8c1.4,0,2.4,1.1,2.4,2.4v4.8Z"/>
      </g>
    </g>
  </g>
</svg>