<?xml version="1.0" encoding="UTF-8"?>
<svg id="Capa_2" data-name="Capa 2" xmlns="http://www.w3.org/2000/svg" viewBox="0 0 100 100">
  <defs>
    <style>
      .cls-1 {
        letter-spacing: 0em;
      }

      .cls-2 {
        fill: none;
        stroke: #0c4194;
        stroke-miterlimit: 10;
        stroke-width: .25px;
      }

      .cls-3 {
        letter-spacing: 0em;
      }

      .cls-4 {
        font-family: MyriadConceptRoman-Semibold, 'Myriad Variable Concept';
        font-size: 6px;
        font-variation-settings: 'wght' 600, 'wdth' 100;
        font-weight: 600;
      }

      .cls-4, .cls-5 {
        fill: #0c4194;
      }

      .cls-6 {
        fill: #0e4194;
      }

      .cls-6, .cls-7, .cls-5 {
        stroke-width: 0px;
      }

      .cls-8 {
        letter-spacing: 0em;
      }

      .cls-7 {
        fill: #fff;
      }
    </style>
  </defs>
  <path class="cls-6" d="M95.89,50.32c-.2,25.32-20.78,45.77-46.14,45.77S3.61,75.43,3.61,49.94,24.26,3.79,49.75,3.79v21.47c-13.83,0-25.05,11.22-25.05,25.06s11.22,25.06,25.06,25.06,25.06-11.22,25.06-25.06h21.07Z"/>
  <g>
    <path class="cls-7" d="M27.71,73.22c-1.92,2.3-2.88,3.45-4.83,5.73-.68-.56-1.02-.85-1.68-1.45,2.06-2.18,3.08-3.27,5.12-5.48.55.49.83.73,1.39,1.19Z"/>
    <path class="cls-7" d="M25.74,79.27c.4.6,1.13,1.38,2.04,1.96,1.14.72,2.01.72,2.32.19.28-.49-.05-1.04-1.04-2.06-1.29-1.33-1.8-2.55-1.15-3.41.74-.98,2.37-.89,4.19.19.91.54,1.51,1.04,1.87,1.45-.36.31-.54.47-.9.78-.26-.29-.77-.81-1.58-1.29-1-.59-1.67-.5-1.92-.13-.32.48.02,1.05,1.04,2.09,1.34,1.36,1.87,2.32,1.38,3.27-.55,1.07-2.35,1.44-4.95-.2-1.06-.67-2-1.62-2.37-2.21.43-.24.65-.37,1.07-.62Z"/>
    <path class="cls-7" d="M43.33,84.28c-.48,2.46-3.1,3.5-6.16,2.54-3.14-.99-4.32-3.39-3.38-5.38.99-2.08,3.37-2.72,5.95-1.93,2.67.82,4,2.66,3.59,4.77ZM35.7,82.22c-.58,1.41.03,3,1.92,3.59,1.91.6,3.32-.37,3.7-1.89.34-1.37-.25-2.85-1.96-3.38-1.7-.53-3.07.26-3.66,1.68Z"/>
    <path class="cls-7" d="M48.36,87.69c.32.04.64.04,1.14.02.81-.03,1.61-.23,2.2-.57.69-.4,1.15-.97,1.3-1.67-.02,0-.02,0-.04,0-.5.44-1.25.71-2.25.72-1.83.02-3.11-1-3-2.32.11-1.38,1.57-2.46,3.55-2.51,2.16-.05,3.44,1.08,3.62,2.83.16,1.54-.46,2.73-1.56,3.51-.91.65-2.28,1.03-3.76,1.08-.47.02-.95.01-1.27-.02.03-.43.04-.65.07-1.08ZM49.58,83.87c-.02.75.57,1.35,1.64,1.32.78-.02,1.35-.32,1.61-.67.07-.1.1-.21.1-.4-.05-.98-.58-1.77-1.74-1.74-.91.02-1.58.62-1.61,1.49Z"/>
    <path class="cls-7" d="M63.24,82.93c.72,2.21-.19,4.12-2.82,4.75-2.53.6-4.09-.78-4.38-2.95-.29-2.22.74-3.86,2.87-4.37,2.2-.53,3.69.55,4.34,2.57ZM57.96,84.4c.31,1.73,1.18,2.51,2.3,2.24,1.2-.29,1.56-1.42,1.11-3.09-.44-1.63-1.21-2.42-2.28-2.16-.94.23-1.44,1.24-1.13,3.01Z"/>
    <path class="cls-7" d="M71.08,79.27c1.17,2.01.66,4.1-1.83,5.29-2.39,1.14-4.23.13-4.97-1.93-.75-2.11-.07-3.93,1.94-4.91,2.08-1.01,3.79-.29,4.86,1.55ZM66.13,81.89c.67,1.63,1.69,2.2,2.75,1.69,1.14-.55,1.26-1.74.46-3.28-.77-1.5-1.7-2.1-2.72-1.61-.89.43-1.18,1.53-.49,3.2Z"/>
    <path class="cls-7" d="M73.38,74.87s-.02.01-.03.02c-.44.67-.66,1-1.14,1.65-.34-.26-.51-.4-.85-.67.62-.84.91-1.27,1.46-2.15.49-.39.74-.59,1.22-1,1.85,2.22,2.76,3.34,4.58,5.59-.67.57-1.01.84-1.7,1.37-1.42-1.93-2.13-2.9-3.56-4.82Z"/>
  </g>
  <text class="cls-4" transform="translate(34.73 53.67)"><tspan x="0" y="0">TUV UK </tspan><tspan class="cls-1" x="20.71" y="0">L</tspan><tspan class="cls-3" x="23.64" y="0">t</tspan><tspan class="cls-8" x="25.7" y="0">d</tspan><tspan x="29.13" y="0">.</tspan></text>
  <g>
    <polygon class="cls-5" points="36.43 39.77 37.51 34.64 35.82 34.64 36.43 32.15 43.87 32.15 43.3 34.69 40.05 34.74 38.97 39.77 36.43 39.77"/>
    <path class="cls-5" d="M41.42,35.35l-.75,3.39s.28,1.65,2.16,1.69,2.4-1.74,2.4-1.74l.85-3.34h-1.84l-.61,2.54h-1.08l.56-2.54h-1.69Z"/>
    <polygon class="cls-5" points="44.62 34.64 46.92 34.64 47.87 40.01 50 40.01 53.75 32.15 50.88 32.15 49.75 36.08 49.18 36.08 49.18 32.15 44.62 32.15 44.62 34.64"/>
    <polygon class="cls-5" points="53.56 39.77 55.63 32.15 58.12 32.15 58.78 36.08 59.96 32.15 62.22 32.15 60.24 40.01 57.42 40.01 56.9 36.08 56.01 39.77 53.56 39.77"/>
    <path class="cls-5" d="M78.12,32.15h-3.01l-1.31,6.68h-.71l-.71-2.07s1.27,0,1.42-2.12c.14-2.12-1.56-2.49-1.56-2.49h-3.2l-1.88,7.62h2.07l1.04-2.73.89,2.73h6.45s2.35-2.02,2.54-4.42c.19-2.4-2.03-3.2-2.03-3.2ZM71.56,35.96h-1.41l.59-2.07h.82s.64.21.56,1.03c-.07.83-.56,1.04-.56,1.04ZM78.34,35.89c-.22,1.44-1.06,2-1.06,2h-1.7l.78-4h1.27s.92.56.71,2Z"/>
    <path class="cls-5" d="M65.65,32.07c-1.67-.43-3.49,1.01-4.06,3.23-.57,2.21.32,4.36,2,4.79,1.67.43,3.49-1.02,4.06-3.23.57-2.22-.32-4.36-2-4.79ZM66.2,36.49c-.3,1.15-1.25,1.91-2.12,1.68-.88-.22-1.34-1.34-1.04-2.5.29-1.16,1.24-1.91,2.12-1.69.87.23,1.34,1.35,1.04,2.51Z"/>
  </g>
  <path class="cls-5" d="M87.97,29.54c0,3.6-1.37,6.88-3.62,9.36-.02.03-.04.06-.07.08-.07.06-.17.1-.28.1-.24,0-.43-.19-.43-.43,0-.1.03-.2.1-.27.01-.02.02-.03.04-.04,1.83-2.24,2.93-5.1,2.93-8.23,0-7.17-5.81-12.99-12.98-12.99-4.92,0-9.2,2.74-11.41,6.78-.01.02-.02.05-.03.07-.08.13-.22.21-.37.21-.24,0-.43-.19-.43-.43,0-.05.01-.1.03-.14,0-.02.01-.03.01-.04,2.24-4.7,7.04-7.95,12.59-7.95,7.68,0,13.92,6.23,13.92,13.92Z"/>
  <circle class="cls-2" cx="49.7" cy="50.04" r="47.25"/>
</svg>