<?xml version="1.0" encoding="UTF-8"?>
<svg id="Capa_2" data-name="Capa 2" xmlns="http://www.w3.org/2000/svg" viewBox="0 0 100 100">
  <defs>
    <style>
      .cls-1 {
        fill: none;
        stroke: #0c4194;
        stroke-miterlimit: 10;
        stroke-width: .25px;
      }

      .cls-2 {
        letter-spacing: 0em;
      }

      .cls-3 {
        font-family: MyriadConceptRoman-Semibold, 'Myriad Variable Concept';
        font-size: 6px;
        font-variation-settings: 'wght' 600, 'wdth' 100;
        font-weight: 600;
      }

      .cls-3, .cls-4 {
        fill: #0c4194;
      }

      .cls-5 {
        fill: #0e4194;
      }

      .cls-5, .cls-6, .cls-4 {
        stroke-width: 0px;
      }

      .cls-6 {
        fill: #fff;
      }

      .cls-7 {
        letter-spacing: 0em;
      }
    </style>
  </defs>
  <path class="cls-5" d="M96.19,50.28c-.2,25.32-20.78,45.77-46.14,45.77S3.9,75.39,3.9,49.9,24.56,3.75,50.05,3.75v21.47c-13.83,0-25.05,11.22-25.05,25.06s11.22,25.06,25.06,25.06,25.06-11.22,25.06-25.06h21.07Z"/>
  <g>
    <path class="cls-6" d="M27.5,73.06c-1.9,2.26-2.85,3.39-4.77,5.63-.59-.49-.88-.74-1.46-1.26,2.02-2.15,3.02-3.24,5.02-5.41.48.43.72.64,1.21,1.04Z"/>
    <path class="cls-6" d="M25.32,78.86c.32.55.93,1.26,1.71,1.78.98.65,1.76.63,2.08.12.29-.47.03-1-.79-1.94-1.07-1.23-1.46-2.36-.81-3.2.74-.96,2.22-.94,3.78.04.78.49,1.28.97,1.57,1.35-.34.31-.52.46-.87.76-.21-.28-.63-.76-1.32-1.2-.86-.54-1.47-.43-1.72-.07-.33.46-.06.99.79,1.97,1.1,1.27,1.5,2.19.99,3.11-.58,1.04-2.2,1.4-4.43-.09-.91-.61-1.7-1.47-2-2.01.41-.25.61-.38,1.02-.63Z"/>
    <path class="cls-6" d="M40.58,83.67c-.63,2.39-3.01,3.28-5.62,2.29-2.68-1.02-3.55-3.31-2.55-5.23,1.05-2.01,3.23-2.66,5.43-1.83,2.28.85,3.28,2.73,2.74,4.77ZM34.04,81.49c-.63,1.37-.22,2.89,1.4,3.5,1.63.61,2.95-.28,3.41-1.75.42-1.33.03-2.79-1.44-3.34-1.46-.55-2.74.22-3.38,1.59Z"/>
    <path class="cls-6" d="M47.79,88.59c.05-.72.08-1.08.13-1.8-1.68-.1-2.51-.19-4.17-.46.06-.35.09-.52.15-.86,1.77-1.51,2.57-2.32,4.02-3.99.72.05,1.08.07,1.81.08-.04,1.71-.07,2.57-.12,4.29.47,0,.7.01,1.17,0,0,.41,0,.61,0,1.02-.48,0-.72,0-1.2,0-.02.72-.03,1.08-.06,1.81-.69-.01-1.04-.03-1.73-.07ZM47.99,85.76c.05-.77.08-1.16.13-1.93.03-.4.08-.81.13-1.23-.02,0-.03,0-.04,0-.29.43-.54.78-.84,1.15-.7.73-1.06,1.08-1.82,1.78,0,0,0,.01,0,.02.98.12,1.47.16,2.45.22Z"/>
    <path class="cls-6" d="M56.92,82.1c-1.28.22-1.92.31-3.2.42-.05.58-.08.86-.14,1.44.19-.04.37-.06.62-.09.76-.07,1.54-.02,2.16.19.7.24,1.3.74,1.44,1.59.23,1.34-1.11,2.74-3.49,2.96-1.12.1-2.07-.07-2.58-.27.14-.41.21-.62.35-1.03.41.15,1.24.32,2.1.24,1.05-.09,2-.68,1.88-1.52-.11-.81-.92-1.21-2.69-1.08-.5.04-.87.09-1.21.14.18-1.45.26-2.17.4-3.62,1.68-.1,2.52-.19,4.19-.49.08.44.11.66.19,1.1Z"/>
    <path class="cls-6" d="M65.06,82.29c.82,2.14.16,3.99-2.1,4.67-2.17.65-3.66-.61-4.1-2.72-.45-2.16.31-3.82,2.15-4.37,1.9-.58,3.31.47,4.06,2.43ZM60.53,83.83c.42,1.68,1.25,2.4,2.21,2.11,1.03-.31,1.25-1.42.72-3.03-.52-1.57-1.27-2.33-2.19-2.05-.81.24-1.16,1.25-.74,2.97Z"/>
    <path class="cls-6" d="M71.82,78.86c1.2,1.95.88,3.91-1.26,5.02-2.05,1.07-3.77.11-4.59-1.89-.84-2.04-.38-3.81,1.35-4.72,1.8-.94,3.4-.19,4.5,1.59ZM67.56,81.28c.72,1.58,1.68,2.13,2.59,1.65.98-.51,1-1.64.17-3.13-.81-1.45-1.69-2.05-2.57-1.59-.77.4-.94,1.46-.2,3.07Z"/>
    <path class="cls-6" d="M73.63,74.79s-.01.01-.02.02c-.36.61-.55.91-.94,1.51-.33-.26-.49-.4-.82-.67.51-.77.75-1.17,1.21-1.96.43-.34.64-.51,1.06-.87,1.83,2.18,2.73,3.28,4.54,5.48-.58.49-.88.73-1.48,1.2-1.42-1.89-2.13-2.83-3.56-4.71Z"/>
  </g>
  <text class="cls-3" transform="translate(28.87 53.63)"><tspan x="0" y="0">TUV NORD CE</tspan><tspan class="cls-7" x="35.62" y="0">R</tspan><tspan x="39.06" y="0">T</tspan></text>
  <text class="cls-3" transform="translate(41.51 59.47)"><tspan class="cls-2" x="0" y="0">G</tspan><tspan x="4.01" y="0">mbH</tspan></text>
  <g>
    <polygon class="cls-4" points="36.73 39.73 37.81 34.6 36.12 34.6 36.73 32.11 44.16 32.11 43.6 34.65 40.35 34.69 39.27 39.73 36.73 39.73"/>
    <path class="cls-4" d="M41.72,35.31l-.75,3.39s.28,1.65,2.16,1.69,2.4-1.74,2.4-1.74l.85-3.34h-1.84l-.61,2.54h-1.08l.56-2.54h-1.69Z"/>
    <polygon class="cls-4" points="44.92 34.6 47.22 34.6 48.16 39.97 50.3 39.97 54.05 32.11 51.18 32.11 50.05 36.04 49.48 36.04 49.48 32.11 44.92 32.11 44.92 34.6"/>
    <polygon class="cls-4" points="53.86 39.73 55.93 32.11 58.42 32.11 59.08 36.04 60.26 32.11 62.52 32.11 60.54 39.97 57.72 39.97 57.2 36.04 56.31 39.73 53.86 39.73"/>
    <path class="cls-4" d="M78.42,32.11h-3.01l-1.31,6.68h-.71l-.71-2.07s1.27,0,1.42-2.12c.14-2.12-1.56-2.49-1.56-2.49h-3.2l-1.88,7.62h2.07l1.04-2.73.89,2.73h6.45s2.35-2.02,2.54-4.42c.19-2.4-2.03-3.2-2.03-3.2ZM71.86,35.92h-1.41l.59-2.07h.82s.64.21.56,1.03c-.07.83-.56,1.04-.56,1.04ZM78.64,35.85c-.22,1.44-1.06,2-1.06,2h-1.7l.78-4h1.27s.92.56.71,2Z"/>
    <path class="cls-4" d="M65.95,32.03c-1.67-.43-3.49,1.01-4.06,3.23-.57,2.21.32,4.36,2,4.79,1.67.43,3.49-1.02,4.06-3.23.57-2.22-.32-4.36-2-4.79ZM66.5,36.45c-.3,1.15-1.25,1.91-2.12,1.68-.88-.22-1.34-1.34-1.04-2.5.29-1.16,1.24-1.91,2.12-1.69.87.23,1.34,1.35,1.04,2.51Z"/>
  </g>
  <path class="cls-4" d="M88.27,29.5c0,3.6-1.37,6.88-3.62,9.36-.02.03-.04.06-.07.08-.07.06-.17.1-.28.1-.24,0-.43-.19-.43-.43,0-.1.03-.2.1-.27.01-.02.02-.03.04-.04,1.83-2.24,2.93-5.1,2.93-8.23,0-7.17-5.81-12.99-12.98-12.99-4.92,0-9.2,2.74-11.41,6.78-.01.02-.02.05-.03.07-.08.13-.22.21-.37.21-.24,0-.43-.19-.43-.43,0-.05.01-.1.03-.14,0-.02.01-.03.01-.04,2.24-4.7,7.04-7.95,12.59-7.95,7.68,0,13.92,6.23,13.92,13.92Z"/>
  <circle class="cls-1" cx="50" cy="50" r="47.25"/>
</svg>