<?xml version="1.0" encoding="UTF-8"?>
<svg xmlns="http://www.w3.org/2000/svg" version="1.1" viewBox="0 0 23.5 23.5">
  <defs>
    <style>
      .cls-1 {
        fill: #f9c001;
      }
    </style>
  </defs>
  <!-- Generator: Adobe Illustrator 28.6.0, SVG Export Plug-In . SVG Version: 1.2.0 Build 709)  -->
  <g>
    <g id="Capa_1">
      <g id="Capa_1-2" data-name="Capa_1">
        <path class="cls-1" d="M23.2,11.8c0,6.3-5.2,11.5-11.5,11.5S.2,18.1.2,11.8,5.4.2,11.8.2s11.5,5.2,11.5,11.5Z"/>
        <path d="M5.9,9.7h2.5v8h-2.5s0-8,0-8ZM7.2,5.8c.8,0,1.4.7,1.4,1.4s-.7,1.5-1.4,1.5-1.5-.7-1.5-1.4.7-1.4,1.4-1.4M10,17.8h2.5v-4c0-1.1.2-2.1,1.5-2.1s1.3,1.2,1.3,2.1v3.9h2.5v-4.4c0-2.2-.5-3.8-3-3.8s-2,.7-2.4,1.3h0v-1.1h-2.4v8h0Z"/>
      </g>
    </g>
  </g>
</svg>