<svg xmlns="http://www.w3.org/2000/svg" xmlns:xlink="http://www.w3.org/1999/xlink" width="114" height="130.825" viewBox="0 0 114 130.825">
  <defs>
    <clipPath id="clip-path">
      <rect id="Rectángulo_21" data-name="Rectángulo 21" width="114" height="130.825" fill="none"/>
    </clipPath>
  </defs>
  <g id="Grupo_5" data-name="Grupo 5" clip-path="url(#clip-path)">
    <path id="Trazado_3" data-name="Trazado 3" d="M11.487,34.457a1.762,1.762,0,0,0-1.119,1.708q.092,16.214.115,32.43c.027,4.388.144,8.827.336,13.16.03.7.98,1.084,1.277,1.257,12.686,7.354,24.841,14.342,37.518,21.711a2.572,2.572,0,0,0,2.966-.147q18.672-10.833,37.4-21.569a3,3,0,0,0,1.7-3.056c-.058-13.4-.024-26.8-.049-40.2a15.012,15.012,0,0,0-.273-4.444c-3.782-2.6-7.88-4.664-11.826-6.985-.039-.055-.066-.133-.118-.164Q65.594,20.132,51.785,12.087a1.587,1.587,0,0,0-1.847.178Q30.721,23.377,11.487,34.457" transform="translate(5.998 6.859)" fill="#fff"/>
    <path id="Trazado_4" data-name="Trazado 4" d="M113.991,34.426a2.817,2.817,0,0,0-1.632-2.862Q85.4,16.107,58.533.493a2.666,2.666,0,0,0-3.121.024Q28.536,16.11,1.588,31.584A2.679,2.679,0,0,0,0,34.282C.063,44.691.036,55.1.036,65.51.036,75.851.062,86.191,0,96.532a2.679,2.679,0,0,0,1.53,2.725q26.95,15.471,53.835,31.056a2.844,2.844,0,0,0,3.3-.025q26.789-15.542,53.646-30.969A2.847,2.847,0,0,0,114,96.472q-.083-31.022-.008-62.046M95.98,89.868q-18.741,10.714-37.4,21.57a2.576,2.576,0,0,1-2.968.145C42.936,104.215,30.781,97.227,18.1,89.873c-.3-.172-1.249-.557-1.28-1.257-.191-4.333-.308-8.77-.335-13.16q-.047-16.214-.115-32.43a1.763,1.763,0,0,1,1.118-1.708q19.24-11.072,38.454-22.191a1.582,1.582,0,0,1,1.844-.178q13.795,8.069,27.627,16.076c.054.032.081.109.118.164,3.948,2.32,8.044,4.387,11.828,6.985a14.962,14.962,0,0,1,.272,4.444c.025,13.4-.009,26.8.049,40.2a3,3,0,0,1-1.7,3.056" transform="translate(0 -0.001)" fill="#f9c000"/>
    <path id="Trazado_5" data-name="Trazado 5" d="M18.446,60.136A11.261,11.261,0,0,0,19.8,61.378a16.369,16.369,0,0,0,10.205,3.55,13.367,13.367,0,0,0,6.581-1.6A10.742,10.742,0,0,0,42.144,53.9a9.605,9.605,0,0,0-2.661-6.857,10.814,10.814,0,0,0-6.115-3.077l7.818-9.788V30.3H22.665a2.9,2.9,0,0,0-2.349.785,3.752,3.752,0,0,0-.624,2.475v5.179H25.35V36.672a.959.959,0,0,1,1.056-1.056h4.273q1.48-.009,2.249-.071c.515-.043.772-.066.775-.073v.1a7.866,7.866,0,0,0-.7.647,13.776,13.776,0,0,0-1.561,1.943l-5.762,7.727L26.934,49h2.4a7.6,7.6,0,0,1,4.586,1.362A4.445,4.445,0,0,1,35.769,54a4.757,4.757,0,0,1-1.645,3.659,6.271,6.271,0,0,1-4.166,1.427,10.957,10.957,0,0,1-4.4-.946,13.149,13.149,0,0,1-2.9-1.755,9.88,9.88,0,0,1-1.045-.946Z" transform="translate(10.671 17.525)" fill="#009cde" fill-rule="evenodd"/>
    <path id="Trazado_6" data-name="Trazado 6" d="M45.36,50.447l2.925-8.54q.32-.98.627-2.153t.508-2.035q.2-.862.21-.9h.095c0,.028.076.33.21.9s.3,1.252.508,2.035.412,1.5.625,2.15l2.927,8.544ZM34.037,64.353h3.79a4.372,4.372,0,0,0,2.6-.581,4.279,4.279,0,0,0,1.38-2.2l2.11-5.951H55.434l2.11,5.951a4.217,4.217,0,0,0,1.4,2.2,4.48,4.48,0,0,0,2.627.581h3.743v-5.32h-.769a1.648,1.648,0,0,1-.941-.2,1.54,1.54,0,0,1-.546-.854L52.987,30.3H46.414L36.291,57.976a1.531,1.531,0,0,1-.545.854,1.654,1.654,0,0,1-.942.2h-.767Z" transform="translate(19.691 17.526)" fill="#009cde" fill-rule="evenodd"/>
  </g>
</svg>
