<?xml version="1.0" encoding="UTF-8"?>
<svg id="Capa_1" data-name="Capa 1" xmlns="http://www.w3.org/2000/svg" version="1.1" viewBox="0 0 23.5 23.5">
  <defs>
    <style>
      .cls-1 {
        fill: #000;
      }

      .cls-1, .cls-2 {
        stroke-width: 0px;
      }

      .cls-2 {
        fill: #f9c001;
      }
    </style>
  </defs>
  <path class="cls-2" d="M23.25,11.75c0,6.34-5.16,11.5-11.5,11.5S.25,18.09.25,11.75,5.41.25,11.75.25s11.5,5.16,11.5,11.5Z"/>
  <path class="cls-1" d="M17.75,10.27c0-1.45-1.17-2.62-2.62-2.62h-6.75c-1.45,0-2.62,1.17-2.62,2.62v2.96c0,1.45,1.17,2.62,2.62,2.62h6.75c1.45,0,2.62-1.17,2.62-2.62v-2.96ZM14.04,11.83l-3.02,1.49c-.12.06-.53-.02-.53-.16v-3.06c0-.14.42-.22.53-.15l2.89,1.57c.12.07.25.24.13.31Z"/>
</svg>